<svg xmlns="http://www.w3.org/2000/svg" viewBox="0 0 24 24" fill="none" stroke="currentColor" stroke-width="1" stroke-linecap="round" stroke-linejoin="round">
  <!-- Left channel wall -->
  <line x1="2.5" y1="5" x2="2.5" y2="20"/>
  <!-- Channel and downstream floor -->
  <line x1="2.5" y1="20" x2="21" y2="20"/>
  <!-- Weir wall -->
  <line x1="13" y1="8" x2="13" y2="20"/>
  <!-- Upstream water level -->
  <path d="M2.5 9.5 C4 9 5 10 6.5 9.5 C8 9 9 10 10.5 9.5 C11.5 9.2 12.5 9.4 13 9.5"/>
  <!-- Overflow arc (water spilling over weir) -->
  <path d="M13 8.5 C16 8.5 18 10 19 13 C19.5 14.5 19.8 16 20 18"/>
  <!-- Downstream water ripple -->
  <path d="M15 17.5 C16 17 17 18 18 17.5 C19 17 20 18 21.5 17.5"/>
</svg>
