<svg xmlns="http://www.w3.org/2000/svg" viewBox="0 0 24 24" fill="none" stroke="currentColor" stroke-width="1" stroke-linecap="round" stroke-linejoin="round">
  <!-- Hex bolt (upper-left to lower-right) -->
  <polygon points="5 2 8 2 10 5 8 8 5 8 3 5"/>
  <line x1="10" y1="6" x2="21" y2="21"/>
  <!-- Wrench (upper-right to lower-left) -->
  <path d="M14.7 6.3a1 1 0 0 0 0 1.4l1.6 1.6a1 1 0 0 0 1.4 0l3.77-3.77a6 6 0 0 1-7.94 7.94l-6.91 6.91a2.12 2.12 0 0 1-3-3l6.91-6.91a6 6 0 0 1 7.94-7.94l-3.76 3.76z"/>
</svg>
