<svg xmlns="http://www.w3.org/2000/svg" viewBox="0 0 24 24" fill="none" stroke="currentColor" stroke-width="1" stroke-linecap="round" stroke-linejoin="round">
  <defs>
    <mask id="well-runs-drop">
      <rect width="24" height="24" fill="white"/>
      <path d="M20 16C18 18.5 18 21 20 21C22 21 22 18.5 20 16Z" fill="black"/>
    </mask>
  </defs>
  <!-- Map (from icon-map) with dots, masked where drop sits -->
  <g mask="url(#well-runs-drop)">
    <polygon points="1 6 1 22 8 18 16 22 23 18 23 2 16 6 8 2 1 6"/>
    <line x1="8"  y1="2"  x2="8"  y2="18"/>
    <line x1="16" y1="6"  x2="16" y2="22"/>
    <circle cx="4"  cy="9"  r="0.8" fill="currentColor" stroke="none"/>
    <circle cx="4"  cy="15" r="0.8" fill="currentColor" stroke="none"/>
    <circle cx="10" cy="7"  r="0.8" fill="currentColor" stroke="none"/>
    <circle cx="13" cy="9"  r="0.8" fill="currentColor" stroke="none"/>
    <circle cx="10" cy="13" r="0.8" fill="currentColor" stroke="none"/>
    <circle cx="14" cy="15" r="0.8" fill="currentColor" stroke="none"/>
    <circle cx="19" cy="9"  r="0.8" fill="currentColor" stroke="none"/>
    <circle cx="20" cy="14" r="0.8" fill="currentColor" stroke="none"/>
  </g>
  <!-- Water drop drawn on top -->
  <path d="M20 16C18 18.5 18 21 20 21C22 21 22 18.5 20 16Z"/>
</svg>
