<svg xmlns="http://www.w3.org/2000/svg" viewBox="0 0 24 24">
  <!-- Oval body -->
  <path fill="currentColor" d="m11.76 4.41c-1.33 0-2.43.92-3.15 2.17-.72 1.25-1.13 2.89-1.13 4.7 0 1.8.41 3.45 1.13 4.7.72 1.25 1.82 2.17 3.15 2.17.71 0 2.48-.53 3.23-1.81l-1.56-.6c-.8.96-1.42.87-1.67.87-.61 0-1.27-.44-1.82-1.4-.55-.96-.93-2.37-.93-3.93 0-1.56.38-2.97.93-3.93.55-.96 1.21-1.4 1.82-1.4.61 0 1.27.44 1.82 1.4.55.96.93 2.37.93 3.93 0 .04.17.43.17.44l1.38.17s-.01-.07-.01-.62c0-1.8-.41-3.44-1.13-4.7-.72-1.25-1.82-2.17-3.15-2.17z"/>
  <!-- Top line -->
  <path fill="none" stroke="currentColor" stroke-width="1" stroke-linecap="round" d="M11.91 4.94 0.07 4.98"/>
  <!-- Bottom line -->
  <path fill="none" stroke="currentColor" stroke-width="1" stroke-linecap="round" d="M11.8 17.65 -0.01 17.69"/>
  <!-- Flow lines -->
  <path fill="none" stroke="currentColor" stroke-width="1" stroke-linecap="round" stroke-linejoin="round" d="M8.73 10.76c1.53-.07 3.07-.14 3.8.43.73.57.66 1.77 1.57 2.43.91.66 2.8.77 3.75 1.51.95.75.96 2.13 1.71 2.87.75.75 2.22.85 2.93 1.76.71.9.66 2.6.6 4.3"/>
  <path fill="none" stroke="currentColor" stroke-width="1" stroke-linecap="round" stroke-linejoin="round" d="M8.73 8.85c2.07.03 4.13.06 5.11.72.98.66.87 1.95 1.72 2.57.85.62 2.67.58 3.61 1.36.94.79 1.01 2.41 1.83 3.29.82.88 2.38 1.02 3.16 2.1.78 1.09.78 3.12.78 5.15"/>
  <path fill="none" stroke="currentColor" stroke-width="1" stroke-linecap="round" stroke-linejoin="round" d="M8.68 12.57c1.15-.08 2.3-.16 2.8.31.5.47.35 1.5 1.26 2.14.91.64 2.88.9 3.87 1.72.99.82 1 2.2 1.66 2.88.65.68 1.94.65 2.57 1.27.63.62.6 1.9.57 3.17"/>
</svg>
