<svg xmlns="http://www.w3.org/2000/svg" viewBox="0 0 24 24" fill="none" stroke="currentColor" stroke-width="1" stroke-linecap="round" stroke-linejoin="round">
  <defs>
    <mask id="well-runs-drop">
      <rect width="24" height="24" fill="white"/>
      <path d="M20 16C18 18.5 18 21 20 21C22 21 22 18.5 20 16Z" fill="black"/>
    </mask>
  </defs>
  <!-- Map panels (masked where drop sits) -->
  <g mask="url(#well-runs-drop)">
    <path d="M2 5L7 3L7 20L2 22Z"/>
    <rect x="7" y="3" width="10" height="17"/>
    <path d="M17 3L22 5L22 22L17 20Z"/>
    <circle cx="4"  cy="9"  r="0.8" fill="currentColor" stroke="none"/>
    <circle cx="4"  cy="15" r="0.8" fill="currentColor" stroke="none"/>
    <circle cx="10" cy="7"  r="0.8" fill="currentColor" stroke="none"/>
    <circle cx="13" cy="9"  r="0.8" fill="currentColor" stroke="none"/>
    <circle cx="10" cy="13" r="0.8" fill="currentColor" stroke="none"/>
    <circle cx="14" cy="15" r="0.8" fill="currentColor" stroke="none"/>
    <circle cx="19" cy="9"  r="0.8" fill="currentColor" stroke="none"/>
    <circle cx="20" cy="14" r="0.8" fill="currentColor" stroke="none"/>
  </g>
  <!-- Water drop drawn on top -->
  <path d="M20 16C18 18.5 18 21 20 21C22 21 22 18.5 20 16Z"/>
</svg>
