<!-- Save as: icon-ponds.svg -->
<svg width="24" height="24" viewBox="0 0 24 24" fill="none" xmlns="http://www.w3.org/2000/svg">
  <!-- Outer pond shape -->
  <path
    d="M12 3
       C16.5 3 20 6 20 10.5
       C20 16 15.5 20 12 20
       C7 20 4 16.5 4 12
       C4 7 7.5 3 12 3Z"
    stroke="black"
    stroke-width="1.5"
    stroke-linejoin="round"
  />

  <!-- Inner contour -->
  <path
    d="M12 7
       C15 7 17 9 17 11.5
       C17 14.5 14.5 17 12 17
       C8.5 17 7 14.5 7 12
       C7 9 9 7 12 7Z"
    stroke="black"
    stroke-width="1.2"
    stroke-linejoin="round"
  />

  <!-- Water ripple -->
  <path
    d="M9 12
       C10 11 11 11 12 12
       C13 13 14 13 15 12"
    stroke="black"
    stroke-width="1.2"
    stroke-linecap="round"
  />
</svg>