<!-- Save as: icon-weir.svg -->
<svg width="24" height="24" viewBox="0 0 24 24" fill="none" xmlns="http://www.w3.org/2000/svg">

  <!-- Left channel wall -->
  <path
    d="M2.5 5V20"
    stroke="black"
    stroke-width="1.5"
    stroke-linecap="round"
    stroke-linejoin="round"
  />

  <!-- Channel floor -->
  <path
    d="M2.5 20H13"
    stroke="black"
    stroke-width="1.5"
    stroke-linecap="round"
  />

  <!-- Weir wall -->
  <path
    d="M13 8V20"
    stroke="black"
    stroke-width="1.5"
    stroke-linecap="round"
  />

  <!-- Upstream water -->
  <path
    d="M2.5 9.5
       C4 9 5 10 6.5 9.5
       C8 9 9 10 10.5 9.5
       C11.5 9.2 12.2 9.3 13 9.5"
    stroke="black"
    stroke-width="1.2"
    stroke-linecap="round"
    fill="none"
  />

  <!-- Overflow water -->
  <path
    d="M13 8.5
       C16 8.5 18 10 19 13
       C19.5 14.5 19.8 16 20 18"
    stroke="black"
    stroke-width="1.5"
    stroke-linecap="round"
    fill="none"
  />

  <!-- Inner flow line -->
  <path
    d="M14.5 10.5
       C16 11.5 17 13 17.5 16"
    stroke="black"
    stroke-width="1"
    stroke-linecap="round"
    fill="none"
  />

  <!-- Downstream pool -->
  <path
    d="M20 20H13"
    stroke="black"
    stroke-width="1.5"
    stroke-linecap="round"
  />

  <!-- Downstream water -->
  <path
    d="M15 17.5
       C16 17 17 18 18 17.5
       C19 17 20 18 21.5 17.5"
    stroke="black"
    stroke-width="1.2"
    stroke-linecap="round"
    fill="none"
  />

</svg>