<?xml version="1.0" encoding="UTF-8" standalone="no"?>
<!-- Created with Inkscape (http://www.inkscape.org/) -->

<svg
   viewBox="0 0 24 24"
   version="1.1"
   id="svg5"
   xmlns="http://www.w3.org/2000/svg"
   xmlns:svg="http://www.w3.org/2000/svg">
  <defs
     id="defs2">
    <linearGradient
       id="linearGradient3870">
      <stop
         style="stop-color:#000000;stop-opacity:1;"
         offset="0"
         id="stop3868" />
    </linearGradient>
  </defs>
  <g
     id="layer1">
    <path
       id="path13297"
       style="color:#000000;fill:#000000;-inkscape-stroke:none"
       d="M 14.554688 11.466797 L 14.552734 11.466797 C 14.550334 11.465097 14.549928 11.464091 14.548828 11.462891 C 14.550928 11.470391 14.555123 11.481883 14.564453 11.501953 C 14.567153 11.507753 14.565241 11.488322 14.5625 11.482422 C 14.5592 11.474722 14.557388 11.470607 14.554688 11.466797 z " />
    <path
       id="path13295"
       style="color:#000000;fill:#000000;-inkscape-stroke:none"
       d="m 11.759766,4.4101562 c -1.331226,0 -2.4321284,0.9215201 -3.1523441,2.171875 -0.7202157,1.2503553 -1.1308594,2.8914753 -1.1308594,4.6953128 0,1.803835 0.4106437,3.44691 1.1308594,4.697265 0.7202157,1.250355 1.8211181,2.171875 3.1523441,2.171875 0.705994,0 2.482994,-0.526495 3.229786,-1.812833 l -1.555893,-0.59623 c -0.800016,0.955716 -1.42041,0.868048 -1.673893,0.868048 -0.608751,0 -1.265297,-0.443619 -1.8164066,-1.400391 C 9.3924199,14.248494 9.015625,12.841472 9.015625,11.277344 c 0,-1.5641306 0.3766249,-2.9709623 0.9277344,-3.9277346 0.5511096,-0.9567724 1.2076556,-1.4003906 1.8164066,-1.4003906 0.608751,0 1.265296,0.4436182 1.816406,1.4003906 0.551109,0.9567723 0.925781,2.363604 0.925781,3.9277346 0,0.03558 0.175405,0.429328 0.17377,0.443328 l 1.375001,0.173828 c 0,0 -0.0098,-0.0729 -0.0098,-0.617187 0,-1.8038384 -0.410644,-3.4449573 -1.13086,-4.6953128 -0.720215,-1.2503548 -1.819165,-2.1718747 -3.15039,-2.171875 z" />
    <path
       style="fill:none;stroke:#000000;stroke-width:0.990085px;stroke-linecap:butt;stroke-linejoin:miter;stroke-opacity:1"
       d="M 11.913474,4.937384 0.06678822,4.9784152 M 4.9676871,4.8553256"
       id="path4539" />
    <path
       style="fill:none;stroke:#000000;stroke-width:0.98852px;stroke-linecap:butt;stroke-linejoin:miter;stroke-opacity:1"
       d="m 11.797549,17.654601 -11.80562031,0.04104 m 4.88391101,-0.12312"
       id="path4539-5" />
    <path
       style="fill:none;stroke:#000000;stroke-width:0.972249px;stroke-linecap:butt;stroke-linejoin:miter;stroke-opacity:1"
       d="m 8.7269331,10.764783 c 1.5331339,-0.06844 3.0653109,-0.136847 3.7967389,0.431379 0.731429,0.568226 0.66303,1.772055 1.573336,2.428301 0.910306,0.656247 2.798128,0.765685 3.748428,1.511744 0.9503,0.746059 0.96398,2.127754 1.710092,2.872886 0.746112,0.745132 2.223538,0.854572 2.934401,1.75793 0.710862,0.903359 0.656141,2.599697 0.60145,4.295129"
       id="path5057" />
    <path
       style="fill:none;stroke:#000000;stroke-width:0.972249px;stroke-linecap:butt;stroke-linejoin:miter;stroke-opacity:1"
       d="m 8.7320469,8.8479139 c 2.0678791,0.030107 4.1347391,0.060199 5.1123741,0.7198679 0.977634,0.6596692 0.867029,1.9478692 1.721056,2.5689122 0.854027,0.621044 2.67143,0.575711 3.614752,1.364067 0.943322,0.788357 1.013282,2.409192 1.829754,3.287995 0.816472,0.878802 2.378287,1.01638 3.159518,2.102707 0.781232,1.086327 0.782798,3.120286 0.784364,5.153391"
       id="path5057-2" />
    <path
       style="fill:none;stroke:#000000;stroke-width:0.972249px;stroke-linecap:butt;stroke-linejoin:miter;stroke-opacity:1"
       d="m 8.6759217,12.574665 c 1.150054,-0.08215 2.2991863,-0.164231 2.7980233,0.30819 0.498837,0.472422 0.34836,1.498413 1.258727,2.141071 0.910368,0.642658 2.880268,0.902576 3.871584,1.723836 0.991315,0.821261 1.004998,2.202956 1.655303,2.879636 0.650305,0.67668 1.936213,0.649321 2.56504,1.272279 0.628827,0.622957 0.601468,1.895211 0.574128,3.166539"
       id="path5057-6" />
  </g>
</svg>
